<svg version="1" xmlns="http://www.w3.org/2000/svg" width="933.333" height="933.333" viewBox="0 0 700.000000 700.000000"><path d="M44.2 44.4c-1.1 1.9-.8 609.9.4 611 1.1 1.2 390.2 1.5 392 .4.5-.4.9-26.6.9-65.5v-64.8l-131.3-.3L175 525V43.5h-65.1c-38.7 0-65.3.4-65.7.9z"/><path d="M204.3 103.8l-7.3.3v54.5h109c60 0 109.1-.3 109.1-.6.1-.3.2-12.5.3-27.3l.1-26.7h-3c-25.8-.3-203-.4-208.2-.2zM445.5 104l-8 .5v54h108.8c66.7.1 109.1-.3 109.4-.9.3-.5.7-12.6.7-26.9.1-22.5-.1-26.1-1.4-26.4-2.3-.6-200.2-.9-209.5-.3zM197 240.6V268h43.4c33.8 0 43.5-.3 43.8-1.3.2-.6.3-12.9.3-27.2l-.1-26-43.7-.2-43.7-.1v27.4zM306.3 240.6V268h306.2v-27c0-23.2-.2-27.1-1.5-27.4-.8-.3-69.7-.4-153.1-.4H306.3v27.4zM197.4 322.9c-.2.2-.4 12.5-.4 27.3 0 20.7.3 26.8 1.3 26.9.6.1 30.1.2 65.4.3l64.3.1.1-4.5c.2-18.8-.1-49.4-.6-49.8-.6-.6-129.4-.9-130.1-.3zM350.2 350l.3 27.4 96.5.1c53.1 0 97.3-.1 98.3-.3 1.6-.4 1.7-2.5 1.7-27.6v-27.1H350l.2 27.5zM197 459.4v27.4l98.3-.2 98.2-.1.1-27.3.2-27.2H197v27.4zM415.5 459.3l.1 27.2 43.7.2 43.7.1V432h-87.5v27.3z"/></svg>